#!OML:ASF H:\Dans Jumps\Project 1\Capture day 1\Session 1\subject.ASF
:FULLY-SPECIFIED
:DEGREES
429
root 0.548352 17.593 11.2165 15.8278 -0.144766 -3.46313
lowerback 7.73897 0.892517 -1.09467
upperback 6.10323 1.10788 1.33409
thorax 1.92685 0.490428 1.92416
lowerneck -14.5911 1.02006 0.30141
upperneck 11.6152 1.56221 -1.69761
head 5.92317 0.636226 -0.44324
rclavicle 3.08116e-015 6.65929e-015
rhumerus -25.0021 -11.8255 -81.0402
rradius 28.9217
rwrist 26.7806
rhand -24.4916 -26.7775
rfingers 7.12502
rthumb 2.00258 -56.7478
lclavicle 3.08116e-015 6.65929e-015
lhumerus -26.9048 -1.97329 87.9217
lradius 27.7022
lwrist 20.2612
lhand -27.4593 -9.31772
lfingers 7.12502
lthumb -0.863655 20.6603
rfemur -25.7946 -1.40105 22.5675
rtibia 26.9235
rfoot -15.119 -1.04451
rtoes 8.91395
lfemur -24.4511 6.82976 -17.7233
ltibia 27.0825
lfoot -13.3086 7.48654
ltoes -8.54037
430
root 0.547431 17.5941 11.2161 15.7763 -0.134842 -3.49706
lowerback 7.68405 0.882476 -1.05749
upperback 6.0953 1.09695 1.34391
thorax 1.9497 0.485856 1.91481
lowerneck -14.6196 1.02564 0.303241
upperneck 11.6819 1.574 -1.72104
head 5.94945 0.639534 -0.449682
rclavicle 5.2181e-015 8.15017e-015
rhumerus -24.815 -11.7408 -81.1526
rradius 28.921
rwrist 26.8032
rhand -24.4357 -26.7562
rfingers 7.12502
rthumb 2.05654 -56.726
lclavicle 5.2181e-015 8.15017e-015
lhumerus -26.7621 -2.10073 88.1003
lradius 27.7444
lwrist 20.2081
lhand -27.5093 -9.20325
lfingers 7.12502
lthumb -0.911998 20.7745
rfemur -25.7146 -1.43422 22.6145
rtibia 26.8779
rfoot -15.096 -1.01023
rtoes 8.92122
lfemur -24.3478 6.82369 -17.6771
ltibia 26.9948
lfoot -13.2972 7.51899
ltoes -8.55075
431
root 0.546569 17.5955 11.2155 15.7244 -0.129663 -3.52135
lowerback 7.63082 0.874594 -1.03208
upperback 6.09028 1.0882 1.35146
thorax 1.97443 0.482 1.90959
lowerneck -14.6491 1.02914 0.301373
upperneck 11.7443 1.58321 -1.74093
head 5.97447 0.641711 -0.454643
rclavicle -4.57205e-015 9.93923e-017
rhumerus -24.629 -11.6542 -81.2648
rradius 28.9298
rwrist 26.8129
rhand -24.3787 -26.7261
rfingers 7.12502
rthumb 2.11161 -56.6954
lclavicle -4.57205e-015 9.93923e-017
lhumerus -26.6085 -2.22426 88.275
lradius 27.7738
lwrist 20.1347
lhand -27.5614 -9.14817
lfingers 7.12502
lthumb -0.96228 20.8294
rfemur -25.6374 -1.46808 22.6497
rtibia 26.837
rfoot -15.074 -0.973754
rtoes 8.93082
lfemur -24.2473 6.82386 -17.6422
ltibia 26.9125
lfoot -13.2839 7.54021
ltoes -8.56987
432
root 0.545706 17.597 11.2148 15.6759 -0.132617 -3.52652
lowerback 7.57842 0.869407 -1.02938
upperback 6.08568 1.08181 1.35386
thorax 1.99879 0.478699 1.91165
lowerneck -14.6803 1.0317 0.294806
upperneck 11.803 1.59133 -1.75567
head 5.99852 0.643567 -0.457304
rclavicle 8.64713e-015 -8.94531e-015
rhumerus -24.4519 -11.554 -81.3792
rradius 28.958
rwrist 26.8
rhand -24.3259 -26.699
rfingers 7.12502
rthumb 2.16265 -56.6677
lclavicle 8.64713e-015 -8.94531e-015
lhumerus -26.4431 -2.34726 88.4451
lradius 27.787
lwrist 20.0393
lhand -27.6109 -9.15956
lfingers 7.12502
lthumb -1.01011 20.8178
rfemur -25.57 -1.50139 22.6627
rtibia 26.8052
rfoot -15.0555 -0.93655
rtoes 8.94818
lfemur -24.1524 6.8302 -17.6296
ltibia 26.8331
lfoot -13.2713 7.54875
ltoes -8.58029
433
root 0.544704 17.5983 11.214 15.6303 -0.140504 -3.51658
lowerback 7.52786 0.865544 -1.04656
upperback 6.08196 1.07614 1.35277
thorax 2.02278 0.475182 1.9212
lowerneck -14.7206 1.03425 0.286604
upperneck 11.8666 1.59939 -1.76695
head 6.02559 0.645497 -0.458566
rclavicle 4.47266e-015 1.47101e-014
rhumerus -24.2797 -11.434 -81.4985
rradius 29.0024
rwrist 26.7613
rhand -24.2759 -26.6781
rfingers 7.12502
rthumb 2.21094 -56.6464
lclavicle 4.47266e-015 1.47101e-014
lhumerus -26.264 -2.47216 88.6093
lradius 27.7807
lwrist 19.9208
lhand -27.65 -9.24046
lfingers 7.12502
lthumb -1.04792 20.7367
rfemur -25.5127 -1.52928 22.6579
rtibia 26.7847
rfoot -15.0423 -0.904927
rtoes 8.97066
lfemur -24.0623 6.84182 -17.6337
ltibia 26.755
lfoot -13.2576 7.54761
ltoes -8.60141
434
root 0.543608 17.5996 11.213 15.5894 -0.151959 -3.4955
lowerback 7.47725 0.862598 -1.07791
upperback 6.07557 1.07103 1.34894
thorax 2.04383 0.471573 1.93581
lowerneck -14.759 1.03627 0.275996
upperneck 11.9345 1.60671 -1.77397
head 6.05369 0.647266 -0.458154
rclavicle 6.4605e-016 1.13307e-014
rhumerus -24.1198 -11.2874 -81.6222
rradius 29.0663
rwrist 26.6923
rhand -24.2285 -26.6715
rfingers 7.12502
rthumb 2.25666 -56.6393
lclavicle 6.4605e-016 1.13307e-014
lhumerus -26.0833 -2.60271 88.768
lradius 27.7642
lwrist 19.7796
lhand -27.6952 -9.36076
lfingers 7.12502
lthumb -1.09157 20.6162
rfemur -25.467 -1.55329 22.6402
rtibia 26.7748
rfoot -15.0334 -0.878233
rtoes 8.99452
lfemur -23.9795 6.85952 -17.6508
ltibia 26.6787
lfoot -13.2436 7.5382
ltoes -8.64028
435
root 0.542479 17.6007 11.2119 15.5539 -0.164335 -3.46251
lowerback 7.4251 0.85891 -1.1219
upperback 6.06474 1.06438 1.34242
thorax 2.06104 0.46691 1.95479
lowerneck -14.8013 1.03911 0.265222
upperneck 12.0186 1.61516 -1.77869
head 6.0876 0.649599 -0.456838
rclavicle 2.98177e-015 5.66536e-015
rhumerus -23.9707 -11.1144 -81.7488
rradius 29.1394
rwrist 26.6011
rhand -24.2007 -26.6763
rfingers 7.12502
rthumb 2.28354 -56.6438
lclavicle 2.98177e-015 5.66536e-015
lhumerus -25.9098 -2.73361 88.9213
lradius 27.7469
lwrist 19.6043
lhand -27.7239 -9.48444
lfingers 7.12502
lthumb -1.11923 20.4924
rfemur -25.4307 -1.57542 22.6088
rtibia 26.7712
rfoot -15.0295 -0.854676
rtoes 9.03778
lfemur -23.9051 6.88167 -17.6818
ltibia 26.6057
lfoot -13.2338 7.52201
ltoes -8.6972
436
root 0.54137 17.6016 11.2107 15.5211 -0.173704 -3.43068
lowerback 7.37524 0.854023 -1.16273
upperback 6.04824 1.05637 1.33637
thorax 2.07119 0.461763 1.97245
lowerneck -14.8372 1.04149 0.25406
upperneck 12.1163 1.62325 -1.78293
head 6.12477 0.651702 -0.455352
rclavicle -3.32964e-015 7.65321e-015
rhumerus -23.8295 -10.9324 -81.8749
rradius 29.2094
rwrist 26.5005
rhand -24.1879 -26.6741
rfingers 7.12502
rthumb 2.29592 -56.6415
lclavicle -3.32964e-015 7.65321e-015
lhumerus -25.748 -2.86071 89.068
lradius 27.7379
lwrist 19.4097
lhand -27.758 -9.55791
lfingers 7.12502
lthumb -1.15215 20.4187
rfemur -25.3994 -1.59644 22.5792
rtibia 26.7695
rfoot -15.0259 -0.836179
rtoes 9.07784
lfemur -23.8387 6.90727 -17.7114
ltibia 26.5384
lfoot -13.2256 7.50385
ltoes -8.79164
437
root 0.540366 17.6023 11.2094 15.4879 -0.178168 -3.40829
lowerback 7.324 0.846617 -1.19074
upperback 6.02855 1.0457 1.33338
thorax 2.07905 0.455695 1.9862
lowerneck -14.8621 1.04472 0.23535
upperneck 12.2231 1.63342 -1.78167
head 6.16294 0.654884 -0.450714
rclavicle -1.1778e-014 -1.98785e-015
rhumerus -23.6981 -10.7365 -82.0009
rradius 29.2809
rwrist 26.3906
rhand -24.1815 -26.6843
rfingers 7.12502
rthumb 2.30206 -56.6516
lclavicle -1.1778e-014 -1.98785e-015
lhumerus -25.604 -2.96985 89.2058
lradius 27.7515
lwrist 19.206
lhand -27.7328 -9.5243
lfingers 7.12502
lthumb -1.12787 20.4525
rfemur -25.3656 -1.61852 22.5606
rtibia 26.7659
rfoot -15.0247 -0.819759
rtoes 9.10857
lfemur -23.7762 6.93736 -17.7306
ltibia 26.4781
lfoot -13.2238 7.48491
ltoes -8.92609
438
root 0.539584 17.6027 11.2081 15.4553 -0.179088 -3.39434
lowerback 7.27272 0.837333 -1.20473
upperback 6.00618 1.03327 1.33198
thorax 2.0844 0.449211 1.99377
lowerneck -14.8809 1.04866 0.213894
upperneck 12.3385 1.64527 -1.78024
head 6.20285 0.658712 -0.445426
rclavicle 7.7526e-015 6.16232e-015
rhumerus -23.5738 -10.5366 -82.1265
rradius 29.3519
rwrist 26.2775
rhand -24.1766 -26.7047
rfingers 7.12502
rthumb 2.3068 -56.672
lclavicle 7.7526e-015 6.16232e-015
lhumerus -25.4758 -3.06841 89.3364
lradius 27.7892
lwrist 19.0104
lhand -27.7014 -9.42786
lfingers 7.12502
lthumb -1.09753 20.5491
rfemur -25.3295 -1.6454 22.5523
rtibia 26.7571
rfoot -15.0238 -0.802831
rtoes 9.11406
lfemur -23.7201 6.96784 -17.7408
ltibia 26.4279
lfoot -13.2275 7.47137
ltoes -9.1048
439
root 0.539033 17.6031 11.2068 15.4218 -0.179718 -3.39015
lowerback 7.21731 0.827832 -1.205
upperback 5.98639 1.02123 1.33229
thorax 2.09489 0.443266 1.99544
lowerneck -14.8943 1.05201 0.196144
upperneck 12.4554 1.65673 -1.78616
head 6.24245 0.661915 -0.443133
rclavicle -7.15625e-015 7.15625e-015
rhumerus -23.454 -10.3321 -82.2527
rradius 29.4308
rwrist 26.1571
rhand -24.1715 -26.7284
rfingers 7.12502
rthumb 2.3117 -56.6957
lclavicle -7.15625e-015 7.15625e-015
lhumerus -25.3552 -3.16065 89.4611
lradius 27.8403
lwrist 18.8329
lhand -27.6884 -9.37178
lfingers 7.12502
lthumb -1.085 20.6052
rfemur -25.2886 -1.67202 22.5546
rtibia 26.7415
rfoot -15.022 -0.785969
rtoes 9.10171
lfemur -23.6679 6.99865 -17.7409
ltibia 26.3884
lfoot -13.2358 7.46678
ltoes -9.3358
